#!OML:ASF F:\VICON\USERDATA\INSTALL\rory3\rory3.ASF
:FULLY-SPECIFIED
:DEGREES
3099
root 0.628367 17.2217 -0.700541 21.0347 4.59348 2.52727
lowerback 15.5721 -0.403357 3.78255
upperback 7.1835 0.167835 5.67044
thorax -1.10209 0.0784388 3.80529
lowerneck 2.54444 -10.54 -13.8712
upperneck 15.2701 -17.7126 25.5212
head 7.86337 -8.13667 9.63355
rclavicle 1.90833e-014 2.38542e-014
rhumerus -17.705 19.4064 -75.3546
rradius 143.244
rwrist -48.4406
rhand 43.779 20.2975
rfingers 7.12502
rthumb 65.4438 13.8773
lclavicle 1.90833e-014 2.38542e-014
lhumerus -18.8541 -32.4711 89.0499
lradius 138.882
lwrist 66.2025
lhand 42.165 34.8308
lfingers 7.12502
lthumb 64.1637 43.3412
rfemur -32.2012 3.77165 11.8588
rtibia 30.1049
rfoot -17.7616 -12.499
rtoes -20.9387
lfemur -34.4 -12.1929 -18.5322
ltibia 29.3652
lfoot -13.5646 4.74955
ltoes -21.2355
3100
root 0.607577 17.2344 -0.703421 21.2271 4.61646 2.41067
lowerback 15.3169 -0.36144 3.80617
upperback 7.2401 0.19276 5.32891
thorax -0.908817 0.0980283 3.42091
lowerneck 2.50403 -10.5898 -13.8939
upperneck 15.0179 -17.7589 25.6786
head 7.8199 -8.16733 9.67794
rclavicle -2.8625e-014 -6.52014e-014
rhumerus -17.8863 18.8238 -75.4179
rradius 143.173
rwrist -48.464
rhand 43.4581 20.3121
rfingers 7.12502
rthumb 65.1922 13.4586
lclavicle -2.8625e-014 -6.52014e-014
lhumerus -18.3733 -32.9144 88.6351
lradius 138.928
lwrist 66.1728
lhand 42.0216 35.0207
lfingers 7.12502
lthumb 64.0483 43.7064
rfemur -32.2841 3.88425 12.0175
rtibia 29.7907
rfoot -17.4797 -12.5211
rtoes -21.166
lfemur -34.552 -12.349 -18.1978
ltibia 29.1657
lfoot -13.4315 4.95829
ltoes -21.4931
3101
root 0.583546 17.2435 -0.711672 21.4552 4.52515 2.30675
lowerback 15.3471 -0.768449 2.71098
upperback 6.99813 -0.45489 5.75459
thorax -1.14747 -0.253776 4.60253
lowerneck 2.61786 -9.89112 -15.8646
upperneck 15.444 -16.8106 25.3488
head 7.85743 -7.84068 10.0602
rclavicle 6.36111e-015 4.77083e-015
rhumerus -17.6597 20.5685 -74.5311
rradius 143.024
rwrist -48.89
rhand 43.0635 20.4804
rfingers 7.12502
rthumb 64.8808 13.1064
lclavicle 6.36111e-015 4.77083e-015
lhumerus -19.2744 -31.1693 89.7249
lradius 139.101
lwrist 65.612
lhand 42.0629 35.0688
lfingers 7.12502
lthumb 64.0816 43.7043
rfemur -32.5256 3.9972 12.1452
rtibia 29.6029
rfoot -17.2335 -12.4786
rtoes -21.3969
lfemur -34.7705 -12.3916 -17.9053
ltibia 29.0162
lfoot -13.3449 5.15673
ltoes -20.9527
3102
root 0.561221 17.2485 -0.721553 21.7117 4.2779 2.2298
lowerback 15.3872 -0.819115 2.1387
upperback 6.85705 -0.591734 5.66609
thorax -1.3062 -0.33088 4.85853
lowerneck 2.57022 -9.59837 -16.4082
upperneck 15.4421 -16.3527 25.1153
head 7.77732 -7.66509 10.1252
rclavicle 2.22639e-014 -1.43125e-014
rhumerus -17.7361 20.9492 -74.2481
rradius 143.003
rwrist -49.0523
rhand 42.9212 20.3089
rfingers 7.12502
rthumb 64.7679 12.7504
lclavicle 2.22639e-014 -1.43125e-014
lhumerus -19.3937 -30.6863 89.9078
lradius 139.19
lwrist 65.6341
lhand 42.4094 35.1332
lfingers 7.12502
lthumb 64.3598 43.3411
rfemur -32.9048 4.01562 12.2372
rtibia 29.5506
rfoot -17.0531 -12.2728
rtoes -21.8998
lfemur -35.0213 -12.3065 -17.7107
ltibia 28.9169
lfoot -13.2862 5.37777
ltoes -20.4518
3103
root 0.543905 17.2483 -0.730759 21.8928 4.19093 2.2975
lowerback 15.44 -0.767528 2.10497
upperback 6.83227 -0.539664 5.18702
thorax -1.37203 -0.297887 4.35765
lowerneck 2.52878 -9.59812 -16.2486
upperneck 15.1759 -16.2955 25.092
head 7.66795 -7.63935 10.0786
rclavicle 3.33958e-014 3.49861e-014
rhumerus -17.9494 20.3426 -74.3324
rradius 143.068
rwrist -49.0713
rhand 43.0531 19.9543
rfingers 7.12502
rthumb 64.8726 12.5667
lclavicle 3.33958e-014 3.49861e-014
lhumerus -18.9635 -31.2385 89.4683
lradius 139.233
lwrist 65.7392
lhand 42.4439 34.9337
lfingers 7.12502
lthumb 64.3875 43.0985
rfemur -33.1696 3.78569 12.2539
rtibia 29.573
rfoot -17.0725 -11.9559
rtoes -22.1734
lfemur -35.2515 -12.3625 -17.6627
ltibia 28.9506
lfoot -13.2727 5.52438
ltoes -19.8924
3104
root 0.523048 17.2435 -0.745172 22.0027 4.12767 2.37918
lowerback 15.6535 -0.74099 1.96771
upperback 6.81653 -0.526313 4.72981
thorax -1.50861 -0.286374 3.95073
lowerneck 2.48788 -9.57889 -16.1578
upperneck 15.0189 -16.2297 25.0527
head 7.5966 -7.61038 10.045
rclavicle 2.94201e-014 -8.74653e-015
rhumerus -18.0804 19.9105 -74.4232
rradius 143.044
rwrist -48.9623
rhand 43.1835 20.0142
rfingers 7.12502
rthumb 64.9758 12.797
lclavicle 2.94201e-014 -8.74653e-015
lhumerus -18.605 -31.8545 89.1127
lradius 139.284
lwrist 65.5414
lhand 42.2084 34.5252
lfingers 7.12502
lthumb 64.1987 42.9822
rfemur -33.3976 3.55531 12.2852
rtibia 29.6309
rfoot -17.1045 -11.7023
rtoes -22.4023
lfemur -35.4669 -12.3859 -17.6418
ltibia 29.04
lfoot -13.3717 5.62461
ltoes -19.0101
3105
root 0.493066 17.2359 -0.76697 22.0596 3.73304 1.95417
lowerback 15.9839 -0.543883 1.91641
upperback 6.82064 -0.274618 4.3833
thorax -1.69608 -0.158321 3.57496
lowerneck 2.49146 -9.55244 -16.029
upperneck 14.8354 -16.1406 24.9432
head 7.49263 -7.57478 9.98123
rclavicle 1.43125e-014 -8.74653e-015
rhumerus -18.2571 19.5926 -74.6444
rradius 142.994
rwrist -48.6267
rhand 43.5478 20.3983
rfingers 7.12502
rthumb 65.2628 13.6651
lclavicle 1.43125e-014 -8.74653e-015
lhumerus -18.2232 -32.471 88.7921
lradius 139.327
lwrist 65.3477
lhand 42.0127 34.2705
lfingers 7.12502
lthumb 64.0412 42.9671
rfemur -33.7405 3.73532 12.7609
rtibia 29.6389
rfoot -17.0368 -11.3239
rtoes -22.5117
lfemur -35.7321 -11.9869 -17.1797
ltibia 29.2833
lfoot -13.5795 5.83267
ltoes -18.4571
